<svg xmlns="http://www.w3.org/2000/svg" width="27" height="29" viewBox="0 0 27 29" fill="none">
<path d="M26.7681 14.1132L0.65497 0.0507777C0.587144 0.0155309 0.511274 -0.00189862 0.434654 0.000163937C0.358034 0.0022265 0.283239 0.023712 0.217459 0.0625554C0.15168 0.101399 0.0971263 0.156293 0.0590432 0.221964C0.02096 0.287634 0.000627338 0.361871 0 0.43754V28.5625C0.000627338 28.6381 0.02096 28.7124 0.0590432 28.778C0.0971263 28.8437 0.15168 28.8986 0.217459 28.9374C0.283239 28.9763 0.358034 28.9978 0.434654 28.9998C0.511274 29.0019 0.587144 28.9845 0.65497 28.9492L26.7681 14.8868C26.8383 14.8487 26.8969 14.7928 26.9377 14.7247C26.9785 14.6567 27 14.5791 27 14.5C27 14.4209 26.9785 14.3433 26.9377 14.2753C26.8969 14.2072 26.8383 14.1513 26.7681 14.1132Z" fill="black"/>
</svg>
