<?xml version="1.0" encoding="utf-8"?>
<!-- Generator: Adobe Illustrator 25.4.1, SVG Export Plug-In . SVG Version: 6.00 Build 0)  -->
<svg version="1.1" id="Calque_1" xmlns="http://www.w3.org/2000/svg" xmlns:xlink="http://www.w3.org/1999/xlink" x="0px" y="0px"
	 viewBox="0 0 589.6 248.7" style="enable-background:new 0 0 589.6 248.7;" xml:space="preserve">
<style type="text/css">
	.st0{fill:#242021;}
</style>
<path class="st0" d="M146.3,4.8h-31.1L0,160.1v27.7h115.2v56h31.1v-56h32.9v-27.7h-32.9L146.3,4.8L146.3,4.8z M115.2,160.1H31.8
	L115.2,48V160.1z"/>
<path class="st0" d="M294.1,0c-65.4,0-92,56.7-92,124.5s26.6,124.2,92,124.2s92-56.4,92-124.2S359.5,0,294.1,0z M294.1,221
	c-45.7,0-60.9-45.7-60.9-96.5s15.2-96.8,60.9-96.8s60.9,46,60.9,96.8C355,175.4,339.8,221,294.1,221z"/>
<path class="st0" d="M556.7,160.1V4.8h-31.1L410.4,160.1v27.7h115.2v56h31.1v-56h32.9v-27.7H556.7z M525.6,160.1h-83.4L525.6,48
	V160.1z"/>
</svg>
