<?xml version="1.0" encoding="utf-8"?>
<!-- Generator: Adobe Illustrator 25.4.1, SVG Export Plug-In . SVG Version: 6.00 Build 0)  -->
<svg version="1.1" id="Calque_1" xmlns="http://www.w3.org/2000/svg" xmlns:xlink="http://www.w3.org/1999/xlink" x="0px" y="0px"
	 viewBox="0 0 349.4 128.4" style="enable-background:new 0 0 349.4 128.4;" xml:space="preserve">
<path style="fill:#231F21;" d="M67.7,59c0-4-3-6.3-8.1-6.3H48.8v25h11.3c5.2,0,8.5-2.5,8.5-7.3c0-3.7-2.2-5.7-4.9-6.1v-0.1
	C65.9,63.5,67.7,62,67.7,59z M53,63v-6.8h6.7c2.5,0,3.9,1.2,3.9,3.4S62.4,63,59.5,63H53z M53,66.1h7.3c2.6,0,4.2,1.4,4.2,4
	c0,2.3-1.1,4-4.7,4H53V66.1z M86.3,71.8l2,5.9h4.2l-9.2-25H79l-9.2,25H74l2-5.9H86.3z M77.2,68.3l4-11.8h0.1l3.9,11.8H77.2z
	 M111.1,61.3h4.2c-0.6-5.1-4.4-9.1-10.8-9.1c-7.2,0-11.8,5.5-11.8,13c0,7.6,4.6,13.1,11.8,13.1c6.4,0,10.2-4,10.8-9.7h-4.2
	c-0.3,3-2.1,6.1-6.7,6.1c-5.4,0-7.5-4.5-7.5-9.5c0-4.9,2.1-9.5,7.5-9.5C109,55.7,110.6,58.8,111.1,61.3z M118.3,52.7v25h4.2v-7.4
	l3.9-4.1l8.2,11.5h4.9l-10.3-14.4l9.7-10.6h-5L122.5,65V52.7H118.3z M154.7,77.7h4.2V56.2h8v-3.5h-20.2v3.5h8V77.7z M179.7,78.2
	c7.5,0,12.3-5.5,12.3-13.1c0-7.5-4.8-13-12.3-13c-7.6,0-12.3,5.5-12.3,13C167.4,72.7,172.1,78.2,179.7,78.2z M179.7,74.7
	c-5.7,0-8.2-4.4-8.2-9.5c0-5,2.4-9.5,8.2-9.5c5.7,0,8.1,4.4,8.1,9.5C187.8,70.2,185.4,74.7,179.7,74.7z M201.9,52.7v25h4.2V66.6H218
	v11.1h4.2v-25H218V63h-11.8V52.7H201.9z M237.9,78.2c7.5,0,12.3-5.5,12.3-13.1c0-7.5-4.8-13-12.3-13c-7.6,0-12.3,5.5-12.3,13
	C225.6,72.7,230.4,78.2,237.9,78.2z M237.9,74.7c-5.7,0-8.2-4.4-8.2-9.5c0-5,2.4-9.5,8.2-9.5s8.1,4.4,8.1,9.5
	C246,70.2,243.7,74.7,237.9,74.7z M253.5,77.7h4.1v-19h0.1l6.6,19h3.3l6.6-19h0.1v19h4.1v-25H273l-7,19.3h-0.1l-7-19.3h-5.4V77.7z
	 M286.8,63v-6.8h13.9v-3.5h-18.1v25h18.5v-3.5h-14.3v-7.6H299V63H286.8z"/>
<path style="fill:#231F21;" d="M285.2,128.4h-221C28.8,128.4,0,99.6,0,64.2S28.8,0,64.2,0h221c35.4,0,64.2,28.8,64.2,64.2
	S320.6,128.4,285.2,128.4z M64.2,2.9C30.4,2.9,2.9,30.4,2.9,64.2s27.5,61.3,61.3,61.3h221c33.8,0,61.3-27.5,61.3-61.3
	S319,2.9,285.2,2.9H64.2z"/>
</svg>
