<svg viewBox="0 0 58 42">
<path d="M57.9998 20.996C57.9678 20.3931 57.7526 19.9192 57.4685 19.621L39.4685 0.621014C38.6403 -0.210456 37.4013 -0.177059 36.6404 0.542912C35.8796 1.26285 35.8423 2.61019 36.5624 3.37104L51.3437 18.996L2 18.996C0.895502 18.996 2.20104e-06 19.8914 2.18786e-06 20.996C2.17469e-06 22.1006 0.895502 22.996 2 22.996L51.3437 22.996L36.5624 38.621C35.8425 39.3818 35.9049 40.7034 36.6404 41.4491C37.4013 42.2204 38.7486 42.1318 39.4685 41.3711L57.4685 22.3711C57.9433 21.8855 57.9688 21.4727 57.9998 20.996Z"/>
</svg>
